<mxfile host="Electron" agent="Mozilla/5.0 (X11; Linux x86_64) AppleWebKit/537.36 (KHTML, like Gecko) draw.io/24.7.17 Chrome/128.0.6613.36 Electron/32.0.1 Safari/537.36" version="24.7.17">
  <diagram name="Page-1" id="HbeNNBsa4P9TcUzrQRo4">
    <mxGraphModel dx="1912" dy="1124" grid="1" gridSize="10" guides="1" tooltips="1" connect="1" arrows="1" fold="1" page="1" pageScale="1" pageWidth="1169" pageHeight="827" math="1" shadow="0">
      <root>
        <mxCell id="0" />
        <mxCell id="1" parent="0" />
        <mxCell id="8pl1B0JXZX6rLwuSRWSA-1" value="" style="ellipse;whiteSpace=wrap;html=1;aspect=fixed;fillColor=#dae8fc;dashed=1;strokeWidth=1;strokeColor=#6c8ebf;gradientColor=#7ea6e0;" vertex="1" parent="1">
          <mxGeometry x="690" y="199.39" width="380" height="380" as="geometry" />
        </mxCell>
        <mxCell id="8pl1B0JXZX6rLwuSRWSA-2" value="" style="endArrow=classic;html=1;rounded=0;entryX=0.5;entryY=0;entryDx=0;entryDy=0;fillColor=none;dashed=1" edge="1" parent="1">
          <mxGeometry width="50" height="50" relative="1" as="geometry">
            <mxPoint x="880" y="389.39" as="sourcePoint" />
            <mxPoint x="880.0049999999997" y="189.39" as="targetPoint" />
          </mxGeometry>
        </mxCell>
        <mxCell id="8pl1B0JXZX6rLwuSRWSA-3" value="" style="ellipse;whiteSpace=wrap;html=1;aspect=fixed;fillColor=#dae8fc;dashed=1;strokeWidth=1;strokeColor=#6c8ebf;gradientColor=#7ea6e0;" vertex="1" parent="1">
          <mxGeometry x="90" y="200" width="380" height="380" as="geometry" />
        </mxCell>
        <mxCell id="8pl1B0JXZX6rLwuSRWSA-4" value="" style="ellipse;whiteSpace=wrap;html=1;rotation=-90;fillColor=none;dashed=1" vertex="1" parent="1">
          <mxGeometry x="85.98000000000002" y="290.39" width="380.08" height="198" as="geometry" />
        </mxCell>
        <mxCell id="8pl1B0JXZX6rLwuSRWSA-5" value="" style="ellipse;whiteSpace=wrap;html=1;rotation=90;direction=south;fillColor=none;dashed=1" vertex="1" parent="1">
          <mxGeometry x="205" y="203.68000000000006" width="150" height="376.32" as="geometry" />
        </mxCell>
        <mxCell id="8pl1B0JXZX6rLwuSRWSA-6" value="" style="endArrow=classic;html=1;rounded=0;entryX=0.5;entryY=0;entryDx=0;entryDy=0;fillColor=none;dashed=1" edge="1" parent="1" source="8pl1B0JXZX6rLwuSRWSA-20" target="8pl1B0JXZX6rLwuSRWSA-3">
          <mxGeometry width="50" height="50" relative="1" as="geometry">
            <mxPoint x="280" y="390" as="sourcePoint" />
            <mxPoint x="310" y="390" as="targetPoint" />
          </mxGeometry>
        </mxCell>
        <mxCell id="8pl1B0JXZX6rLwuSRWSA-7" value="" style="endArrow=classic;html=1;rounded=0;entryX=0.5;entryY=1;entryDx=0;entryDy=0;fillColor=none;dashed=1" edge="1" parent="1" target="8pl1B0JXZX6rLwuSRWSA-3">
          <mxGeometry width="50" height="50" relative="1" as="geometry">
            <mxPoint x="279.5" y="390" as="sourcePoint" />
            <mxPoint x="279.5" y="200" as="targetPoint" />
          </mxGeometry>
        </mxCell>
        <mxCell id="8pl1B0JXZX6rLwuSRWSA-8" value="" style="endArrow=classic;startArrow=classic;html=1;rounded=0;entryX=1;entryY=0.5;entryDx=0;entryDy=0;exitX=0;exitY=0.5;exitDx=0;exitDy=0;fillColor=none;dashed=1" edge="1" parent="1" source="8pl1B0JXZX6rLwuSRWSA-3" target="8pl1B0JXZX6rLwuSRWSA-3">
          <mxGeometry width="50" height="50" relative="1" as="geometry">
            <mxPoint x="260" y="440" as="sourcePoint" />
            <mxPoint x="310" y="390" as="targetPoint" />
          </mxGeometry>
        </mxCell>
        <mxCell id="8pl1B0JXZX6rLwuSRWSA-9" value="&lt;span style=&quot;font-size: 18px;&quot;&gt;$$\ket{0}$$&lt;/span&gt;" style="text;html=1;align=center;verticalAlign=middle;whiteSpace=wrap;rounded=0;" vertex="1" parent="1">
          <mxGeometry x="250" y="160" width="60" height="30" as="geometry" />
        </mxCell>
        <mxCell id="8pl1B0JXZX6rLwuSRWSA-10" value="&lt;span style=&quot;font-size: 18px;&quot;&gt;$$\ket{1}$$&lt;/span&gt;" style="text;html=1;align=center;verticalAlign=middle;whiteSpace=wrap;rounded=0;" vertex="1" parent="1">
          <mxGeometry x="250" y="590" width="60" height="30" as="geometry" />
        </mxCell>
        <mxCell id="8pl1B0JXZX6rLwuSRWSA-11" value="&lt;span style=&quot;font-size: 18px;&quot;&gt;$$\ket{+}$$&lt;/span&gt;" style="text;html=1;align=center;verticalAlign=middle;whiteSpace=wrap;rounded=0;" vertex="1" parent="1">
          <mxGeometry x="130" y="458.39" width="60" height="30" as="geometry" />
        </mxCell>
        <mxCell id="8pl1B0JXZX6rLwuSRWSA-12" value="&lt;span style=&quot;font-size: 18px;&quot;&gt;$$\ket{-}$$&lt;/span&gt;" style="text;html=1;align=center;verticalAlign=middle;whiteSpace=wrap;rounded=0;" vertex="1" parent="1">
          <mxGeometry x="360" y="300" width="60" height="30" as="geometry" />
        </mxCell>
        <mxCell id="8pl1B0JXZX6rLwuSRWSA-13" value="&lt;span style=&quot;font-size: 18px;&quot;&gt;$$\ket{+i}$$&lt;/span&gt;" style="text;html=1;align=center;verticalAlign=middle;whiteSpace=wrap;rounded=0;" vertex="1" parent="1">
          <mxGeometry x="479.99999999999994" y="374.39" width="60" height="30" as="geometry" />
        </mxCell>
        <mxCell id="8pl1B0JXZX6rLwuSRWSA-14" value="&lt;span style=&quot;font-size: 18px;&quot;&gt;$$\ket{-i}$$&lt;/span&gt;" style="text;html=1;align=center;verticalAlign=middle;whiteSpace=wrap;rounded=0;" vertex="1" parent="1">
          <mxGeometry x="50" y="375" width="30" height="30" as="geometry" />
        </mxCell>
        <mxCell id="8pl1B0JXZX6rLwuSRWSA-15" value="&lt;font style=&quot;font-size: 18px;&quot;&gt;$$\ket{\psi_1}$$&lt;/font&gt;" style="text;html=1;align=center;verticalAlign=middle;whiteSpace=wrap;rounded=0;" vertex="1" parent="1">
          <mxGeometry x="210" y="433.61" width="50" height="30" as="geometry" />
        </mxCell>
        <mxCell id="8pl1B0JXZX6rLwuSRWSA-16" value="" style="endArrow=classic;startArrow=none;html=1;rounded=0;entryX=0.263;entryY=0.932;entryDx=0;entryDy=0;entryPerimeter=0;fillColor=none;dashed=1" edge="1" parent="1">
          <mxGeometry width="50" height="50" relative="1" as="geometry">
            <mxPoint x="280" y="390" as="sourcePoint" />
            <mxPoint x="369" y="327" as="targetPoint" />
          </mxGeometry>
        </mxCell>
        <mxCell id="8pl1B0JXZX6rLwuSRWSA-17" value="" style="endArrow=classic;html=1;rounded=0;strokeWidth=2;strokeColor=#0000CC;fillColor=#CC0000;" edge="1" parent="1">
          <mxGeometry width="50" height="50" relative="1" as="geometry">
            <mxPoint x="282" y="390" as="sourcePoint" />
            <mxPoint x="280" y="210" as="targetPoint" />
          </mxGeometry>
        </mxCell>
        <mxCell id="8pl1B0JXZX6rLwuSRWSA-18" value="&lt;font style=&quot;font-size: 18px;&quot;&gt;$$\ket{\psi_2}$$&lt;/font&gt;" style="text;html=1;align=center;verticalAlign=middle;whiteSpace=wrap;rounded=0;" vertex="1" parent="1">
          <mxGeometry x="280" y="220" width="50" height="30" as="geometry" />
        </mxCell>
        <mxCell id="8pl1B0JXZX6rLwuSRWSA-19" value="" style="endArrow=classic;html=1;rounded=0;entryX=0.5;entryY=0;entryDx=0;entryDy=0;fillColor=none;dashed=1" edge="1" parent="1" target="8pl1B0JXZX6rLwuSRWSA-20">
          <mxGeometry width="50" height="50" relative="1" as="geometry">
            <mxPoint x="280" y="390" as="sourcePoint" />
            <mxPoint x="280" y="200" as="targetPoint" />
          </mxGeometry>
        </mxCell>
        <mxCell id="8pl1B0JXZX6rLwuSRWSA-20" value="" style="ellipse;whiteSpace=wrap;html=1;aspect=fixed;fillColor=#0000CC;" vertex="1" parent="1">
          <mxGeometry x="270.20000000000005" y="190" width="19.61" height="19.61" as="geometry" />
        </mxCell>
        <mxCell id="8pl1B0JXZX6rLwuSRWSA-21" value="" style="ellipse;whiteSpace=wrap;html=1;rotation=-90;fillColor=none;dashed=1" vertex="1" parent="1">
          <mxGeometry x="685.98" y="289.78" width="380.08" height="198" as="geometry" />
        </mxCell>
        <mxCell id="8pl1B0JXZX6rLwuSRWSA-22" value="" style="ellipse;whiteSpace=wrap;html=1;rotation=90;direction=south;fillColor=none;dashed=1" vertex="1" parent="1">
          <mxGeometry x="805" y="203.07000000000005" width="150" height="376.32" as="geometry" />
        </mxCell>
        <mxCell id="8pl1B0JXZX6rLwuSRWSA-23" value="" style="endArrow=classic;html=1;rounded=0;entryX=0.5;entryY=0;entryDx=0;entryDy=0;fillColor=none;dashed=1" edge="1" parent="1" target="8pl1B0JXZX6rLwuSRWSA-1">
          <mxGeometry width="50" height="50" relative="1" as="geometry">
            <mxPoint x="880" y="199.39" as="sourcePoint" />
            <mxPoint x="910" y="389.39" as="targetPoint" />
          </mxGeometry>
        </mxCell>
        <mxCell id="8pl1B0JXZX6rLwuSRWSA-24" value="" style="endArrow=classic;html=1;rounded=0;entryX=0.5;entryY=1;entryDx=0;entryDy=0;fillColor=none;dashed=1" edge="1" parent="1" target="8pl1B0JXZX6rLwuSRWSA-1">
          <mxGeometry width="50" height="50" relative="1" as="geometry">
            <mxPoint x="879.5" y="389.39" as="sourcePoint" />
            <mxPoint x="879.5" y="199.39" as="targetPoint" />
          </mxGeometry>
        </mxCell>
        <mxCell id="8pl1B0JXZX6rLwuSRWSA-25" value="" style="endArrow=classic;startArrow=classic;html=1;rounded=0;entryX=1;entryY=0.5;entryDx=0;entryDy=0;exitX=0;exitY=0.5;exitDx=0;exitDy=0;fillColor=none;dashed=1" edge="1" parent="1" source="8pl1B0JXZX6rLwuSRWSA-1" target="8pl1B0JXZX6rLwuSRWSA-1">
          <mxGeometry width="50" height="50" relative="1" as="geometry">
            <mxPoint x="860" y="439.39" as="sourcePoint" />
            <mxPoint x="910" y="389.39" as="targetPoint" />
          </mxGeometry>
        </mxCell>
        <mxCell id="8pl1B0JXZX6rLwuSRWSA-26" value="" style="endArrow=classic;html=1;rounded=0;strokeWidth=2;strokeColor=#CC0000;fillColor=#CC0000;entryX=1;entryY=0;entryDx=0;entryDy=0;" edge="1" parent="1" target="8pl1B0JXZX6rLwuSRWSA-36">
          <mxGeometry width="50" height="50" relative="1" as="geometry">
            <mxPoint x="880" y="389.39" as="sourcePoint" />
            <mxPoint x="999.8099999999943" y="497.58500000000004" as="targetPoint" />
          </mxGeometry>
        </mxCell>
        <mxCell id="8pl1B0JXZX6rLwuSRWSA-27" value="&lt;span style=&quot;font-size: 18px;&quot;&gt;$$\ket{0}$$&lt;/span&gt;" style="text;html=1;align=center;verticalAlign=middle;whiteSpace=wrap;rounded=0;" vertex="1" parent="1">
          <mxGeometry x="850" y="159.39" width="60" height="30" as="geometry" />
        </mxCell>
        <mxCell id="8pl1B0JXZX6rLwuSRWSA-28" value="&lt;span style=&quot;font-size: 18px;&quot;&gt;$$\ket{1}$$&lt;/span&gt;" style="text;html=1;align=center;verticalAlign=middle;whiteSpace=wrap;rounded=0;" vertex="1" parent="1">
          <mxGeometry x="850" y="589.39" width="60" height="30" as="geometry" />
        </mxCell>
        <mxCell id="8pl1B0JXZX6rLwuSRWSA-29" value="&lt;span style=&quot;font-size: 18px;&quot;&gt;$$\ket{+}$$&lt;/span&gt;" style="text;html=1;align=center;verticalAlign=middle;whiteSpace=wrap;rounded=0;" vertex="1" parent="1">
          <mxGeometry x="730" y="457.78" width="60" height="30" as="geometry" />
        </mxCell>
        <mxCell id="8pl1B0JXZX6rLwuSRWSA-30" value="&lt;span style=&quot;font-size: 18px;&quot;&gt;$$\ket{-}$$&lt;/span&gt;" style="text;html=1;align=center;verticalAlign=middle;whiteSpace=wrap;rounded=0;" vertex="1" parent="1">
          <mxGeometry x="960" y="299.39" width="60" height="30" as="geometry" />
        </mxCell>
        <mxCell id="8pl1B0JXZX6rLwuSRWSA-31" value="&lt;span style=&quot;font-size: 18px;&quot;&gt;$$\ket{+i}$$&lt;/span&gt;" style="text;html=1;align=center;verticalAlign=middle;whiteSpace=wrap;rounded=0;" vertex="1" parent="1">
          <mxGeometry x="1066.06" y="373.78" width="60" height="30" as="geometry" />
        </mxCell>
        <mxCell id="8pl1B0JXZX6rLwuSRWSA-32" value="&lt;span style=&quot;font-size: 18px;&quot;&gt;$$\ket{-i}$$&lt;/span&gt;" style="text;html=1;align=center;verticalAlign=middle;whiteSpace=wrap;rounded=0;" vertex="1" parent="1">
          <mxGeometry x="650" y="374.39" width="30" height="30" as="geometry" />
        </mxCell>
        <mxCell id="8pl1B0JXZX6rLwuSRWSA-33" value="&lt;font style=&quot;font-size: 18px;&quot;&gt;$$\ket{\psi_1}$$&lt;/font&gt;" style="text;html=1;align=center;verticalAlign=middle;whiteSpace=wrap;rounded=0;" vertex="1" parent="1">
          <mxGeometry x="810" y="433" width="50" height="30" as="geometry" />
        </mxCell>
        <mxCell id="8pl1B0JXZX6rLwuSRWSA-34" value="" style="endArrow=classic;startArrow=none;html=1;rounded=0;entryX=0.263;entryY=0.932;entryDx=0;entryDy=0;entryPerimeter=0;fillColor=none;dashed=1" edge="1" parent="1">
          <mxGeometry width="50" height="50" relative="1" as="geometry">
            <mxPoint x="880" y="389.39" as="sourcePoint" />
            <mxPoint x="969" y="326.39" as="targetPoint" />
          </mxGeometry>
        </mxCell>
        <mxCell id="8pl1B0JXZX6rLwuSRWSA-35" value="&lt;font style=&quot;font-size: 18px;&quot;&gt;$$\ket{\psi_2}$$&lt;/font&gt;" style="text;html=1;align=center;verticalAlign=middle;whiteSpace=wrap;rounded=0;" vertex="1" parent="1">
          <mxGeometry x="880" y="219.39" width="50" height="30" as="geometry" />
        </mxCell>
        <mxCell id="8pl1B0JXZX6rLwuSRWSA-36" value="" style="ellipse;whiteSpace=wrap;html=1;aspect=fixed;fillColor=#FF0000;" vertex="1" parent="1">
          <mxGeometry x="770.39" y="443.39" width="19.61" height="19.61" as="geometry" />
        </mxCell>
        <mxCell id="8pl1B0JXZX6rLwuSRWSA-37" value="" style="endArrow=classic;startArrow=none;html=1;rounded=0;entryX=0.184;entryY=0.711;entryDx=0;entryDy=0;entryPerimeter=0;fillColor=none;dashed=1" edge="1" parent="1">
          <mxGeometry width="50" height="50" relative="1" as="geometry">
            <mxPoint x="280" y="390" as="sourcePoint" />
            <mxPoint x="173.60824000000002" y="457.94271000000003" as="targetPoint" />
          </mxGeometry>
        </mxCell>
        <mxCell id="8pl1B0JXZX6rLwuSRWSA-38" value="" style="shape=flexArrow;endArrow=classic;html=1;rounded=0;fillColor=#f5f5f5;gradientColor=#b3b3b3;strokeColor=#666666;" edge="1" parent="1">
          <mxGeometry width="50" height="50" relative="1" as="geometry">
            <mxPoint x="540" y="389.5" as="sourcePoint" />
            <mxPoint x="630" y="389.5" as="targetPoint" />
          </mxGeometry>
        </mxCell>
        <mxCell id="8pl1B0JXZX6rLwuSRWSA-39" value="&lt;font color=&quot;#003da3&quot; style=&quot;font-size: 48px;&quot;&gt;$$\texttt{H}$$&lt;/font&gt;" style="text;html=1;align=center;verticalAlign=middle;whiteSpace=wrap;rounded=0;" vertex="1" parent="1">
          <mxGeometry x="555" y="350" width="60" height="30" as="geometry" />
        </mxCell>
        <mxCell id="8pl1B0JXZX6rLwuSRWSA-40" value="&lt;font style=&quot;font-size: 24px;&quot;&gt;$$\texttt{H}\ket{0}$$&lt;/font&gt;" style="text;html=1;align=center;verticalAlign=middle;whiteSpace=wrap;rounded=0;" vertex="1" parent="1">
          <mxGeometry x="466.06" y="680" width="50" height="50" as="geometry" />
        </mxCell>
        <mxCell id="8pl1B0JXZX6rLwuSRWSA-41" value="&lt;font style=&quot;font-size: 24px;&quot;&gt;$$\frac{1}{\sqrt{2}}\ket{0} + \frac{1}{\sqrt{2}}\ket{1}$$&lt;/font&gt;" style="text;html=1;align=center;verticalAlign=middle;whiteSpace=wrap;rounded=0;" vertex="1" parent="1">
          <mxGeometry x="630" y="660" width="190" height="90" as="geometry" />
        </mxCell>
        <mxCell id="8pl1B0JXZX6rLwuSRWSA-42" value="" style="shape=flexArrow;endArrow=classic;html=1;rounded=0;fillColor=#f5f5f5;gradientColor=#b3b3b3;strokeColor=#666666;" edge="1" parent="1">
          <mxGeometry width="50" height="50" relative="1" as="geometry">
            <mxPoint x="521.98" y="704.5" as="sourcePoint" />
            <mxPoint x="611.98" y="704.5" as="targetPoint" />
          </mxGeometry>
        </mxCell>
        <mxCell id="8pl1B0JXZX6rLwuSRWSA-43" value="" style="shape=curlyBracket;whiteSpace=wrap;html=1;rounded=1;flipH=1;labelPosition=right;verticalLabelPosition=middle;align=left;verticalAlign=middle;strokeWidth=1.618;rotation=90;" vertex="1" parent="1">
          <mxGeometry x="532.03" y="510" width="103.94" height="610" as="geometry" />
        </mxCell>
        <mxCell id="8pl1B0JXZX6rLwuSRWSA-47" value="" style="whiteSpace=wrap;html=1;aspect=fixed;strokeColor=#D4E1F5;fillColor=#D4E1F5;" vertex="1" parent="1">
          <mxGeometry x="354" y="950" width="100" height="100" as="geometry" />
        </mxCell>
        <mxCell id="8pl1B0JXZX6rLwuSRWSA-48" value="" style="rounded=0;whiteSpace=wrap;html=1;strokeColor=#004C99;fillColor=none" vertex="1" parent="1">
          <mxGeometry x="369" y="960" width="70" height="80" as="geometry" />
        </mxCell>
        <mxCell id="8pl1B0JXZX6rLwuSRWSA-49" value="" style="endArrow=none;html=1;rounded=0;strokeColor=#004C99;" edge="1" parent="1">
          <mxGeometry width="50" height="50" relative="1" as="geometry">
            <mxPoint x="369" y="970" as="sourcePoint" />
            <mxPoint x="439" y="970" as="targetPoint" />
          </mxGeometry>
        </mxCell>
        <mxCell id="8pl1B0JXZX6rLwuSRWSA-50" value="" style="endArrow=none;html=1;rounded=0;strokeColor=#004C99;" edge="1" parent="1">
          <mxGeometry width="50" height="50" relative="1" as="geometry">
            <mxPoint x="369" y="980" as="sourcePoint" />
            <mxPoint x="439" y="980" as="targetPoint" />
          </mxGeometry>
        </mxCell>
        <mxCell id="8pl1B0JXZX6rLwuSRWSA-51" value="" style="endArrow=none;html=1;rounded=0;strokeColor=#004C99;" edge="1" parent="1">
          <mxGeometry width="50" height="50" relative="1" as="geometry">
            <mxPoint x="369" y="990" as="sourcePoint" />
            <mxPoint x="439" y="990" as="targetPoint" />
          </mxGeometry>
        </mxCell>
        <mxCell id="8pl1B0JXZX6rLwuSRWSA-52" value="" style="endArrow=none;html=1;rounded=0;strokeColor=#004C99;" edge="1" parent="1">
          <mxGeometry width="50" height="50" relative="1" as="geometry">
            <mxPoint x="369" y="999.72" as="sourcePoint" />
            <mxPoint x="439" y="999.72" as="targetPoint" />
          </mxGeometry>
        </mxCell>
        <mxCell id="8pl1B0JXZX6rLwuSRWSA-53" value="" style="endArrow=none;html=1;rounded=0;strokeColor=#004C99;" edge="1" parent="1">
          <mxGeometry width="50" height="50" relative="1" as="geometry">
            <mxPoint x="369" y="1010" as="sourcePoint" />
            <mxPoint x="439" y="1010" as="targetPoint" />
          </mxGeometry>
        </mxCell>
        <mxCell id="8pl1B0JXZX6rLwuSRWSA-54" value="" style="endArrow=none;html=1;rounded=0;strokeColor=#004C99;" edge="1" parent="1">
          <mxGeometry width="50" height="50" relative="1" as="geometry">
            <mxPoint x="369" y="1020" as="sourcePoint" />
            <mxPoint x="439" y="1020" as="targetPoint" />
          </mxGeometry>
        </mxCell>
        <mxCell id="8pl1B0JXZX6rLwuSRWSA-55" value="" style="endArrow=none;html=1;rounded=0;strokeColor=#004C99;" edge="1" parent="1">
          <mxGeometry width="50" height="50" relative="1" as="geometry">
            <mxPoint x="369" y="1030" as="sourcePoint" />
            <mxPoint x="439" y="1030" as="targetPoint" />
          </mxGeometry>
        </mxCell>
        <mxCell id="8pl1B0JXZX6rLwuSRWSA-56" value="" style="rounded=0;whiteSpace=wrap;html=1;fillColor=#7EA6E0;strokeColor=#7EA6E0;" vertex="1" parent="1">
          <mxGeometry x="454" y="980" width="10" height="40" as="geometry" />
        </mxCell>
        <mxCell id="8pl1B0JXZX6rLwuSRWSA-57" value="" style="rounded=0;whiteSpace=wrap;html=1;fillColor=#7EA6E0;strokeColor=#7EA6E0;" vertex="1" parent="1">
          <mxGeometry x="344" y="980" width="10" height="40" as="geometry" />
        </mxCell>
        <mxCell id="8pl1B0JXZX6rLwuSRWSA-58" value="" style="rounded=0;whiteSpace=wrap;html=1;fillColor=#7EA6E0;strokeColor=#7EA6E0;" vertex="1" parent="1">
          <mxGeometry x="384" y="1050" width="40" height="10" as="geometry" />
        </mxCell>
        <mxCell id="8pl1B0JXZX6rLwuSRWSA-59" value="" style="rounded=0;whiteSpace=wrap;html=1;fillColor=#7EA6E0;strokeColor=#7EA6E0;" vertex="1" parent="1">
          <mxGeometry x="384" y="940" width="40" height="10" as="geometry" />
        </mxCell>
        <mxCell id="8pl1B0JXZX6rLwuSRWSA-60" value="" style="whiteSpace=wrap;html=1;aspect=fixed;strokeColor=#D4E1F5;fillColor=#D4E1F5;" vertex="1" parent="1">
          <mxGeometry x="534" y="950" width="100" height="100" as="geometry" />
        </mxCell>
        <mxCell id="8pl1B0JXZX6rLwuSRWSA-61" value="" style="rounded=0;whiteSpace=wrap;html=1;strokeColor=#004C99;fillColor=none" vertex="1" parent="1">
          <mxGeometry x="549" y="960" width="70" height="80" as="geometry" />
        </mxCell>
        <mxCell id="8pl1B0JXZX6rLwuSRWSA-62" value="" style="endArrow=none;html=1;rounded=0;strokeColor=#004C99;" edge="1" parent="1">
          <mxGeometry width="50" height="50" relative="1" as="geometry">
            <mxPoint x="549" y="970" as="sourcePoint" />
            <mxPoint x="619" y="970" as="targetPoint" />
          </mxGeometry>
        </mxCell>
        <mxCell id="8pl1B0JXZX6rLwuSRWSA-63" value="" style="endArrow=none;html=1;rounded=0;strokeColor=#004C99;" edge="1" parent="1">
          <mxGeometry width="50" height="50" relative="1" as="geometry">
            <mxPoint x="549" y="980" as="sourcePoint" />
            <mxPoint x="619" y="980" as="targetPoint" />
          </mxGeometry>
        </mxCell>
        <mxCell id="8pl1B0JXZX6rLwuSRWSA-64" value="" style="endArrow=none;html=1;rounded=0;strokeColor=#004C99;" edge="1" parent="1">
          <mxGeometry width="50" height="50" relative="1" as="geometry">
            <mxPoint x="549" y="990" as="sourcePoint" />
            <mxPoint x="619" y="990" as="targetPoint" />
          </mxGeometry>
        </mxCell>
        <mxCell id="8pl1B0JXZX6rLwuSRWSA-65" value="" style="endArrow=none;html=1;rounded=0;strokeColor=#004C99;" edge="1" parent="1">
          <mxGeometry width="50" height="50" relative="1" as="geometry">
            <mxPoint x="549" y="999.72" as="sourcePoint" />
            <mxPoint x="619" y="999.72" as="targetPoint" />
          </mxGeometry>
        </mxCell>
        <mxCell id="8pl1B0JXZX6rLwuSRWSA-66" value="" style="endArrow=none;html=1;rounded=0;strokeColor=#004C99;" edge="1" parent="1">
          <mxGeometry width="50" height="50" relative="1" as="geometry">
            <mxPoint x="549" y="1010" as="sourcePoint" />
            <mxPoint x="619" y="1010" as="targetPoint" />
          </mxGeometry>
        </mxCell>
        <mxCell id="8pl1B0JXZX6rLwuSRWSA-67" value="" style="endArrow=none;html=1;rounded=0;strokeColor=#004C99;" edge="1" parent="1">
          <mxGeometry width="50" height="50" relative="1" as="geometry">
            <mxPoint x="549" y="1020" as="sourcePoint" />
            <mxPoint x="619" y="1020" as="targetPoint" />
          </mxGeometry>
        </mxCell>
        <mxCell id="8pl1B0JXZX6rLwuSRWSA-68" value="" style="endArrow=none;html=1;rounded=0;strokeColor=#004C99;" edge="1" parent="1">
          <mxGeometry width="50" height="50" relative="1" as="geometry">
            <mxPoint x="549" y="1030" as="sourcePoint" />
            <mxPoint x="619" y="1030" as="targetPoint" />
          </mxGeometry>
        </mxCell>
        <mxCell id="8pl1B0JXZX6rLwuSRWSA-69" value="" style="rounded=0;whiteSpace=wrap;html=1;fillColor=#7EA6E0;strokeColor=#7EA6E0;" vertex="1" parent="1">
          <mxGeometry x="634" y="980" width="10" height="40" as="geometry" />
        </mxCell>
        <mxCell id="8pl1B0JXZX6rLwuSRWSA-70" value="" style="rounded=0;whiteSpace=wrap;html=1;fillColor=#7EA6E0;strokeColor=#7EA6E0;" vertex="1" parent="1">
          <mxGeometry x="524" y="980" width="10" height="40" as="geometry" />
        </mxCell>
        <mxCell id="8pl1B0JXZX6rLwuSRWSA-71" value="" style="rounded=0;whiteSpace=wrap;html=1;fillColor=#7EA6E0;strokeColor=#7EA6E0;" vertex="1" parent="1">
          <mxGeometry x="564" y="1050" width="40" height="10" as="geometry" />
        </mxCell>
        <mxCell id="8pl1B0JXZX6rLwuSRWSA-72" value="" style="rounded=0;whiteSpace=wrap;html=1;fillColor=#7EA6E0;strokeColor=#7EA6E0;" vertex="1" parent="1">
          <mxGeometry x="564" y="940" width="40" height="10" as="geometry" />
        </mxCell>
        <mxCell id="8pl1B0JXZX6rLwuSRWSA-73" value="" style="whiteSpace=wrap;html=1;aspect=fixed;strokeColor=#D4E1F5;fillColor=#D4E1F5;" vertex="1" parent="1">
          <mxGeometry x="714" y="950" width="100" height="100" as="geometry" />
        </mxCell>
        <mxCell id="8pl1B0JXZX6rLwuSRWSA-74" value="" style="rounded=0;whiteSpace=wrap;html=1;strokeColor=#004C99;fillColor=none" vertex="1" parent="1">
          <mxGeometry x="729" y="960" width="70" height="80" as="geometry" />
        </mxCell>
        <mxCell id="8pl1B0JXZX6rLwuSRWSA-75" value="" style="endArrow=none;html=1;rounded=0;strokeColor=#004C99;" edge="1" parent="1">
          <mxGeometry width="50" height="50" relative="1" as="geometry">
            <mxPoint x="729" y="970" as="sourcePoint" />
            <mxPoint x="799" y="970" as="targetPoint" />
          </mxGeometry>
        </mxCell>
        <mxCell id="8pl1B0JXZX6rLwuSRWSA-76" value="" style="endArrow=none;html=1;rounded=0;strokeColor=#004C99;" edge="1" parent="1">
          <mxGeometry width="50" height="50" relative="1" as="geometry">
            <mxPoint x="729" y="980" as="sourcePoint" />
            <mxPoint x="799" y="980" as="targetPoint" />
          </mxGeometry>
        </mxCell>
        <mxCell id="8pl1B0JXZX6rLwuSRWSA-77" value="" style="endArrow=none;html=1;rounded=0;strokeColor=#004C99;" edge="1" parent="1">
          <mxGeometry width="50" height="50" relative="1" as="geometry">
            <mxPoint x="729" y="990" as="sourcePoint" />
            <mxPoint x="799" y="990" as="targetPoint" />
          </mxGeometry>
        </mxCell>
        <mxCell id="8pl1B0JXZX6rLwuSRWSA-78" value="" style="endArrow=none;html=1;rounded=0;strokeColor=#004C99;" edge="1" parent="1">
          <mxGeometry width="50" height="50" relative="1" as="geometry">
            <mxPoint x="729" y="999.72" as="sourcePoint" />
            <mxPoint x="799" y="999.72" as="targetPoint" />
          </mxGeometry>
        </mxCell>
        <mxCell id="8pl1B0JXZX6rLwuSRWSA-79" value="" style="endArrow=none;html=1;rounded=0;strokeColor=#004C99;" edge="1" parent="1">
          <mxGeometry width="50" height="50" relative="1" as="geometry">
            <mxPoint x="729" y="1010" as="sourcePoint" />
            <mxPoint x="799" y="1010" as="targetPoint" />
          </mxGeometry>
        </mxCell>
        <mxCell id="8pl1B0JXZX6rLwuSRWSA-80" value="" style="endArrow=none;html=1;rounded=0;strokeColor=#004C99;" edge="1" parent="1">
          <mxGeometry width="50" height="50" relative="1" as="geometry">
            <mxPoint x="729" y="1020" as="sourcePoint" />
            <mxPoint x="799" y="1020" as="targetPoint" />
          </mxGeometry>
        </mxCell>
        <mxCell id="8pl1B0JXZX6rLwuSRWSA-81" value="" style="endArrow=none;html=1;rounded=0;strokeColor=#004C99;" edge="1" parent="1">
          <mxGeometry width="50" height="50" relative="1" as="geometry">
            <mxPoint x="729" y="1030" as="sourcePoint" />
            <mxPoint x="799" y="1030" as="targetPoint" />
          </mxGeometry>
        </mxCell>
        <mxCell id="8pl1B0JXZX6rLwuSRWSA-82" value="" style="rounded=0;whiteSpace=wrap;html=1;fillColor=#7EA6E0;strokeColor=#7EA6E0;" vertex="1" parent="1">
          <mxGeometry x="814" y="980" width="10" height="40" as="geometry" />
        </mxCell>
        <mxCell id="8pl1B0JXZX6rLwuSRWSA-83" value="" style="rounded=0;whiteSpace=wrap;html=1;fillColor=#7EA6E0;strokeColor=#7EA6E0;" vertex="1" parent="1">
          <mxGeometry x="704" y="980" width="10" height="40" as="geometry" />
        </mxCell>
        <mxCell id="8pl1B0JXZX6rLwuSRWSA-84" value="" style="rounded=0;whiteSpace=wrap;html=1;fillColor=#7EA6E0;strokeColor=#7EA6E0;" vertex="1" parent="1">
          <mxGeometry x="744" y="1050" width="40" height="10" as="geometry" />
        </mxCell>
        <mxCell id="8pl1B0JXZX6rLwuSRWSA-85" value="" style="rounded=0;whiteSpace=wrap;html=1;fillColor=#7EA6E0;strokeColor=#7EA6E0;" vertex="1" parent="1">
          <mxGeometry x="744" y="940" width="40" height="10" as="geometry" />
        </mxCell>
        <mxCell id="8pl1B0JXZX6rLwuSRWSA-86" value="" style="whiteSpace=wrap;html=1;aspect=fixed;strokeColor=#D4E1F5;fillColor=#D4E1F5;" vertex="1" parent="1">
          <mxGeometry x="354" y="1130" width="100" height="100" as="geometry" />
        </mxCell>
        <mxCell id="8pl1B0JXZX6rLwuSRWSA-87" value="" style="rounded=0;whiteSpace=wrap;html=1;strokeColor=#004C99;fillColor=none" vertex="1" parent="1">
          <mxGeometry x="369" y="1140" width="70" height="80" as="geometry" />
        </mxCell>
        <mxCell id="8pl1B0JXZX6rLwuSRWSA-88" value="" style="endArrow=none;html=1;rounded=0;strokeColor=#004C99;" edge="1" parent="1">
          <mxGeometry width="50" height="50" relative="1" as="geometry">
            <mxPoint x="369" y="1150" as="sourcePoint" />
            <mxPoint x="439" y="1150" as="targetPoint" />
          </mxGeometry>
        </mxCell>
        <mxCell id="8pl1B0JXZX6rLwuSRWSA-89" value="" style="endArrow=none;html=1;rounded=0;strokeColor=#004C99;" edge="1" parent="1">
          <mxGeometry width="50" height="50" relative="1" as="geometry">
            <mxPoint x="369" y="1160" as="sourcePoint" />
            <mxPoint x="439" y="1160" as="targetPoint" />
          </mxGeometry>
        </mxCell>
        <mxCell id="8pl1B0JXZX6rLwuSRWSA-90" value="" style="endArrow=none;html=1;rounded=0;strokeColor=#004C99;" edge="1" parent="1">
          <mxGeometry width="50" height="50" relative="1" as="geometry">
            <mxPoint x="369" y="1170" as="sourcePoint" />
            <mxPoint x="439" y="1170" as="targetPoint" />
          </mxGeometry>
        </mxCell>
        <mxCell id="8pl1B0JXZX6rLwuSRWSA-91" value="" style="endArrow=none;html=1;rounded=0;strokeColor=#004C99;" edge="1" parent="1">
          <mxGeometry width="50" height="50" relative="1" as="geometry">
            <mxPoint x="369" y="1179.72" as="sourcePoint" />
            <mxPoint x="439" y="1179.72" as="targetPoint" />
          </mxGeometry>
        </mxCell>
        <mxCell id="8pl1B0JXZX6rLwuSRWSA-92" value="" style="endArrow=none;html=1;rounded=0;strokeColor=#004C99;" edge="1" parent="1">
          <mxGeometry width="50" height="50" relative="1" as="geometry">
            <mxPoint x="369" y="1190" as="sourcePoint" />
            <mxPoint x="439" y="1190" as="targetPoint" />
          </mxGeometry>
        </mxCell>
        <mxCell id="8pl1B0JXZX6rLwuSRWSA-93" value="" style="endArrow=none;html=1;rounded=0;strokeColor=#004C99;" edge="1" parent="1">
          <mxGeometry width="50" height="50" relative="1" as="geometry">
            <mxPoint x="369" y="1200" as="sourcePoint" />
            <mxPoint x="439" y="1200" as="targetPoint" />
          </mxGeometry>
        </mxCell>
        <mxCell id="8pl1B0JXZX6rLwuSRWSA-94" value="" style="endArrow=none;html=1;rounded=0;strokeColor=#004C99;" edge="1" parent="1">
          <mxGeometry width="50" height="50" relative="1" as="geometry">
            <mxPoint x="369" y="1210" as="sourcePoint" />
            <mxPoint x="439" y="1210" as="targetPoint" />
          </mxGeometry>
        </mxCell>
        <mxCell id="8pl1B0JXZX6rLwuSRWSA-95" value="" style="rounded=0;whiteSpace=wrap;html=1;fillColor=#7EA6E0;strokeColor=#7EA6E0;" vertex="1" parent="1">
          <mxGeometry x="454" y="1160" width="10" height="40" as="geometry" />
        </mxCell>
        <mxCell id="8pl1B0JXZX6rLwuSRWSA-96" value="" style="rounded=0;whiteSpace=wrap;html=1;fillColor=#7EA6E0;strokeColor=#7EA6E0;" vertex="1" parent="1">
          <mxGeometry x="344" y="1160" width="10" height="40" as="geometry" />
        </mxCell>
        <mxCell id="8pl1B0JXZX6rLwuSRWSA-97" value="" style="rounded=0;whiteSpace=wrap;html=1;fillColor=#7EA6E0;strokeColor=#7EA6E0;" vertex="1" parent="1">
          <mxGeometry x="384" y="1230" width="40" height="10" as="geometry" />
        </mxCell>
        <mxCell id="8pl1B0JXZX6rLwuSRWSA-98" value="" style="rounded=0;whiteSpace=wrap;html=1;fillColor=#7EA6E0;strokeColor=#7EA6E0;" vertex="1" parent="1">
          <mxGeometry x="384" y="1120" width="40" height="10" as="geometry" />
        </mxCell>
        <mxCell id="8pl1B0JXZX6rLwuSRWSA-99" value="" style="whiteSpace=wrap;html=1;aspect=fixed;strokeColor=#D4E1F5;fillColor=#D4E1F5;" vertex="1" parent="1">
          <mxGeometry x="534" y="1130" width="100" height="100" as="geometry" />
        </mxCell>
        <mxCell id="8pl1B0JXZX6rLwuSRWSA-100" value="" style="rounded=0;whiteSpace=wrap;html=1;strokeColor=#004C99;fillColor=none" vertex="1" parent="1">
          <mxGeometry x="549" y="1140" width="70" height="80" as="geometry" />
        </mxCell>
        <mxCell id="8pl1B0JXZX6rLwuSRWSA-101" value="" style="endArrow=none;html=1;rounded=0;strokeColor=#004C99;" edge="1" parent="1">
          <mxGeometry width="50" height="50" relative="1" as="geometry">
            <mxPoint x="549" y="1150" as="sourcePoint" />
            <mxPoint x="619" y="1150" as="targetPoint" />
          </mxGeometry>
        </mxCell>
        <mxCell id="8pl1B0JXZX6rLwuSRWSA-102" value="" style="endArrow=none;html=1;rounded=0;strokeColor=#004C99;" edge="1" parent="1">
          <mxGeometry width="50" height="50" relative="1" as="geometry">
            <mxPoint x="549" y="1160" as="sourcePoint" />
            <mxPoint x="619" y="1160" as="targetPoint" />
          </mxGeometry>
        </mxCell>
        <mxCell id="8pl1B0JXZX6rLwuSRWSA-103" value="" style="endArrow=none;html=1;rounded=0;strokeColor=#004C99;" edge="1" parent="1">
          <mxGeometry width="50" height="50" relative="1" as="geometry">
            <mxPoint x="549" y="1170" as="sourcePoint" />
            <mxPoint x="619" y="1170" as="targetPoint" />
          </mxGeometry>
        </mxCell>
        <mxCell id="8pl1B0JXZX6rLwuSRWSA-104" value="" style="endArrow=none;html=1;rounded=0;strokeColor=#004C99;" edge="1" parent="1">
          <mxGeometry width="50" height="50" relative="1" as="geometry">
            <mxPoint x="549" y="1179.72" as="sourcePoint" />
            <mxPoint x="619" y="1179.72" as="targetPoint" />
          </mxGeometry>
        </mxCell>
        <mxCell id="8pl1B0JXZX6rLwuSRWSA-105" value="" style="endArrow=none;html=1;rounded=0;strokeColor=#004C99;" edge="1" parent="1">
          <mxGeometry width="50" height="50" relative="1" as="geometry">
            <mxPoint x="549" y="1190" as="sourcePoint" />
            <mxPoint x="619" y="1190" as="targetPoint" />
          </mxGeometry>
        </mxCell>
        <mxCell id="8pl1B0JXZX6rLwuSRWSA-106" value="" style="endArrow=none;html=1;rounded=0;strokeColor=#004C99;" edge="1" parent="1">
          <mxGeometry width="50" height="50" relative="1" as="geometry">
            <mxPoint x="549" y="1200" as="sourcePoint" />
            <mxPoint x="619" y="1200" as="targetPoint" />
          </mxGeometry>
        </mxCell>
        <mxCell id="8pl1B0JXZX6rLwuSRWSA-107" value="" style="endArrow=none;html=1;rounded=0;strokeColor=#004C99;" edge="1" parent="1">
          <mxGeometry width="50" height="50" relative="1" as="geometry">
            <mxPoint x="549" y="1210" as="sourcePoint" />
            <mxPoint x="619" y="1210" as="targetPoint" />
          </mxGeometry>
        </mxCell>
        <mxCell id="8pl1B0JXZX6rLwuSRWSA-108" value="" style="rounded=0;whiteSpace=wrap;html=1;fillColor=#7EA6E0;strokeColor=#7EA6E0;" vertex="1" parent="1">
          <mxGeometry x="634" y="1160" width="10" height="40" as="geometry" />
        </mxCell>
        <mxCell id="8pl1B0JXZX6rLwuSRWSA-109" value="" style="rounded=0;whiteSpace=wrap;html=1;fillColor=#7EA6E0;strokeColor=#7EA6E0;" vertex="1" parent="1">
          <mxGeometry x="524" y="1160" width="10" height="40" as="geometry" />
        </mxCell>
        <mxCell id="8pl1B0JXZX6rLwuSRWSA-110" value="" style="rounded=0;whiteSpace=wrap;html=1;fillColor=#7EA6E0;strokeColor=#7EA6E0;" vertex="1" parent="1">
          <mxGeometry x="564" y="1230" width="40" height="10" as="geometry" />
        </mxCell>
        <mxCell id="8pl1B0JXZX6rLwuSRWSA-111" value="" style="rounded=0;whiteSpace=wrap;html=1;fillColor=#7EA6E0;strokeColor=#7EA6E0;" vertex="1" parent="1">
          <mxGeometry x="564" y="1120" width="40" height="10" as="geometry" />
        </mxCell>
        <mxCell id="8pl1B0JXZX6rLwuSRWSA-112" value="" style="whiteSpace=wrap;html=1;aspect=fixed;strokeColor=#D4E1F5;fillColor=#D4E1F5;" vertex="1" parent="1">
          <mxGeometry x="714" y="1130" width="100" height="100" as="geometry" />
        </mxCell>
        <mxCell id="8pl1B0JXZX6rLwuSRWSA-113" value="" style="rounded=0;whiteSpace=wrap;html=1;strokeColor=#004C99;fillColor=none" vertex="1" parent="1">
          <mxGeometry x="729" y="1140" width="70" height="80" as="geometry" />
        </mxCell>
        <mxCell id="8pl1B0JXZX6rLwuSRWSA-114" value="" style="endArrow=none;html=1;rounded=0;strokeColor=#004C99;" edge="1" parent="1">
          <mxGeometry width="50" height="50" relative="1" as="geometry">
            <mxPoint x="729" y="1150" as="sourcePoint" />
            <mxPoint x="799" y="1150" as="targetPoint" />
          </mxGeometry>
        </mxCell>
        <mxCell id="8pl1B0JXZX6rLwuSRWSA-115" value="" style="endArrow=none;html=1;rounded=0;strokeColor=#004C99;" edge="1" parent="1">
          <mxGeometry width="50" height="50" relative="1" as="geometry">
            <mxPoint x="729" y="1160" as="sourcePoint" />
            <mxPoint x="799" y="1160" as="targetPoint" />
          </mxGeometry>
        </mxCell>
        <mxCell id="8pl1B0JXZX6rLwuSRWSA-116" value="" style="endArrow=none;html=1;rounded=0;strokeColor=#004C99;" edge="1" parent="1">
          <mxGeometry width="50" height="50" relative="1" as="geometry">
            <mxPoint x="729" y="1170" as="sourcePoint" />
            <mxPoint x="799" y="1170" as="targetPoint" />
          </mxGeometry>
        </mxCell>
        <mxCell id="8pl1B0JXZX6rLwuSRWSA-117" value="" style="endArrow=none;html=1;rounded=0;strokeColor=#004C99;" edge="1" parent="1">
          <mxGeometry width="50" height="50" relative="1" as="geometry">
            <mxPoint x="729" y="1179.72" as="sourcePoint" />
            <mxPoint x="799" y="1179.72" as="targetPoint" />
          </mxGeometry>
        </mxCell>
        <mxCell id="8pl1B0JXZX6rLwuSRWSA-118" value="" style="endArrow=none;html=1;rounded=0;strokeColor=#004C99;" edge="1" parent="1">
          <mxGeometry width="50" height="50" relative="1" as="geometry">
            <mxPoint x="729" y="1190" as="sourcePoint" />
            <mxPoint x="799" y="1190" as="targetPoint" />
          </mxGeometry>
        </mxCell>
        <mxCell id="8pl1B0JXZX6rLwuSRWSA-119" value="" style="endArrow=none;html=1;rounded=0;strokeColor=#004C99;" edge="1" parent="1">
          <mxGeometry width="50" height="50" relative="1" as="geometry">
            <mxPoint x="729" y="1200" as="sourcePoint" />
            <mxPoint x="799" y="1200" as="targetPoint" />
          </mxGeometry>
        </mxCell>
        <mxCell id="8pl1B0JXZX6rLwuSRWSA-120" value="" style="endArrow=none;html=1;rounded=0;strokeColor=#004C99;" edge="1" parent="1" source="8pl1B0JXZX6rLwuSRWSA-182">
          <mxGeometry width="50" height="50" relative="1" as="geometry">
            <mxPoint x="729" y="1210" as="sourcePoint" />
            <mxPoint x="799" y="1210" as="targetPoint" />
          </mxGeometry>
        </mxCell>
        <mxCell id="8pl1B0JXZX6rLwuSRWSA-121" value="" style="rounded=0;whiteSpace=wrap;html=1;fillColor=#7EA6E0;strokeColor=#7EA6E0;" vertex="1" parent="1">
          <mxGeometry x="814" y="1160" width="10" height="40" as="geometry" />
        </mxCell>
        <mxCell id="8pl1B0JXZX6rLwuSRWSA-122" value="" style="rounded=0;whiteSpace=wrap;html=1;fillColor=#7EA6E0;strokeColor=#7EA6E0;" vertex="1" parent="1">
          <mxGeometry x="704" y="1160" width="10" height="40" as="geometry" />
        </mxCell>
        <mxCell id="8pl1B0JXZX6rLwuSRWSA-123" value="" style="rounded=0;whiteSpace=wrap;html=1;fillColor=#7EA6E0;strokeColor=#7EA6E0;" vertex="1" parent="1">
          <mxGeometry x="744" y="1230" width="40" height="10" as="geometry" />
        </mxCell>
        <mxCell id="8pl1B0JXZX6rLwuSRWSA-124" value="" style="rounded=0;whiteSpace=wrap;html=1;fillColor=#7EA6E0;strokeColor=#7EA6E0;" vertex="1" parent="1">
          <mxGeometry x="744" y="1120" width="40" height="10" as="geometry" />
        </mxCell>
        <mxCell id="8pl1B0JXZX6rLwuSRWSA-125" value="" style="whiteSpace=wrap;html=1;aspect=fixed;fillColor=#7EA6E0;strokeColor=#7EA6E0;" vertex="1" parent="1">
          <mxGeometry x="574" y="1080" width="20" height="20" as="geometry" />
        </mxCell>
        <mxCell id="8pl1B0JXZX6rLwuSRWSA-126" value="" style="whiteSpace=wrap;html=1;aspect=fixed;fillColor=#7EA6E0;strokeColor=#7EA6E0;" vertex="1" parent="1">
          <mxGeometry x="394" y="1080" width="20" height="20" as="geometry" />
        </mxCell>
        <mxCell id="8pl1B0JXZX6rLwuSRWSA-127" value="" style="whiteSpace=wrap;html=1;aspect=fixed;fillColor=#7EA6E0;strokeColor=#7EA6E0;" vertex="1" parent="1">
          <mxGeometry x="754" y="1080" width="20" height="20" as="geometry" />
        </mxCell>
        <mxCell id="8pl1B0JXZX6rLwuSRWSA-128" value="" style="whiteSpace=wrap;html=1;aspect=fixed;fillColor=#7EA6E0;strokeColor=#7EA6E0;" vertex="1" parent="1">
          <mxGeometry x="664" y="990" width="20" height="20" as="geometry" />
        </mxCell>
        <mxCell id="8pl1B0JXZX6rLwuSRWSA-129" value="" style="whiteSpace=wrap;html=1;aspect=fixed;fillColor=#7EA6E0;strokeColor=#7EA6E0;" vertex="1" parent="1">
          <mxGeometry x="664" y="1170" width="20" height="20" as="geometry" />
        </mxCell>
        <mxCell id="8pl1B0JXZX6rLwuSRWSA-130" value="" style="whiteSpace=wrap;html=1;aspect=fixed;fillColor=#7EA6E0;strokeColor=#7EA6E0;" vertex="1" parent="1">
          <mxGeometry x="484" y="1170" width="20" height="20" as="geometry" />
        </mxCell>
        <mxCell id="8pl1B0JXZX6rLwuSRWSA-131" value="" style="whiteSpace=wrap;html=1;aspect=fixed;fillColor=#7EA6E0;strokeColor=#7EA6E0;" vertex="1" parent="1">
          <mxGeometry x="484" y="990" width="20" height="20" as="geometry" />
        </mxCell>
        <mxCell id="8pl1B0JXZX6rLwuSRWSA-132" value="" style="shape=flexArrow;endArrow=classic;html=1;rounded=0;fillColor=#99CCFF;strokeColor=#99CCFF;" edge="1" parent="1">
          <mxGeometry width="50" height="50" relative="1" as="geometry">
            <mxPoint x="304" y="1000" as="sourcePoint" />
            <mxPoint x="344" y="1000" as="targetPoint" />
          </mxGeometry>
        </mxCell>
        <mxCell id="8pl1B0JXZX6rLwuSRWSA-133" value="" style="shape=flexArrow;endArrow=classic;html=1;rounded=0;fillColor=#99CCFF;strokeColor=#99CCFF;" edge="1" parent="1">
          <mxGeometry width="50" height="50" relative="1" as="geometry">
            <mxPoint x="304" y="1179.72" as="sourcePoint" />
            <mxPoint x="344" y="1179.72" as="targetPoint" />
          </mxGeometry>
        </mxCell>
        <mxCell id="8pl1B0JXZX6rLwuSRWSA-134" value="" style="shape=flexArrow;endArrow=classic;html=1;rounded=0;fillColor=#99CCFF;strokeColor=#99CCFF;" edge="1" parent="1">
          <mxGeometry width="50" height="50" relative="1" as="geometry">
            <mxPoint x="403.72" y="1280.56" as="sourcePoint" />
            <mxPoint x="403.72" y="1240" as="targetPoint" />
          </mxGeometry>
        </mxCell>
        <mxCell id="8pl1B0JXZX6rLwuSRWSA-135" value="" style="shape=flexArrow;endArrow=classic;html=1;rounded=0;fillColor=#99CCFF;strokeColor=#99CCFF;" edge="1" parent="1">
          <mxGeometry width="50" height="50" relative="1" as="geometry">
            <mxPoint x="583.72" y="1280.56" as="sourcePoint" />
            <mxPoint x="583.72" y="1240" as="targetPoint" />
          </mxGeometry>
        </mxCell>
        <mxCell id="8pl1B0JXZX6rLwuSRWSA-136" value="" style="shape=flexArrow;endArrow=classic;html=1;rounded=0;fillColor=#99CCFF;strokeColor=#99CCFF;" edge="1" parent="1">
          <mxGeometry width="50" height="50" relative="1" as="geometry">
            <mxPoint x="763.7200000000003" y="1280.56" as="sourcePoint" />
            <mxPoint x="763.7200000000003" y="1240" as="targetPoint" />
          </mxGeometry>
        </mxCell>
        <mxCell id="8pl1B0JXZX6rLwuSRWSA-137" value="" style="shape=flexArrow;endArrow=classic;html=1;rounded=0;fillColor=#99CCFF;strokeColor=#99CCFF;" edge="1" parent="1">
          <mxGeometry width="50" height="50" relative="1" as="geometry">
            <mxPoint x="864" y="1180" as="sourcePoint" />
            <mxPoint x="823.44" y="1179.44" as="targetPoint" />
          </mxGeometry>
        </mxCell>
        <mxCell id="8pl1B0JXZX6rLwuSRWSA-138" value="" style="shape=flexArrow;endArrow=classic;html=1;rounded=0;fillColor=#99CCFF;strokeColor=#99CCFF;" edge="1" parent="1">
          <mxGeometry width="50" height="50" relative="1" as="geometry">
            <mxPoint x="864.56" y="1000.28" as="sourcePoint" />
            <mxPoint x="824" y="999.72" as="targetPoint" />
          </mxGeometry>
        </mxCell>
        <mxCell id="8pl1B0JXZX6rLwuSRWSA-139" value="" style="shape=flexArrow;endArrow=classic;html=1;rounded=0;fillColor=#99CCFF;strokeColor=#99CCFF;" edge="1" parent="1">
          <mxGeometry width="50" height="50" relative="1" as="geometry">
            <mxPoint x="764" y="900" as="sourcePoint" />
            <mxPoint x="764" y="939" as="targetPoint" />
          </mxGeometry>
        </mxCell>
        <mxCell id="8pl1B0JXZX6rLwuSRWSA-140" value="" style="shape=flexArrow;endArrow=classic;html=1;rounded=0;fillColor=#99CCFF;strokeColor=#99CCFF;" edge="1" parent="1">
          <mxGeometry width="50" height="50" relative="1" as="geometry">
            <mxPoint x="583.72" y="901" as="sourcePoint" />
            <mxPoint x="583.72" y="940" as="targetPoint" />
          </mxGeometry>
        </mxCell>
        <mxCell id="8pl1B0JXZX6rLwuSRWSA-141" value="" style="shape=flexArrow;endArrow=classic;html=1;rounded=0;fillColor=#99CCFF;strokeColor=#99CCFF;" edge="1" parent="1">
          <mxGeometry width="50" height="50" relative="1" as="geometry">
            <mxPoint x="403.72" y="901" as="sourcePoint" />
            <mxPoint x="403.72" y="940" as="targetPoint" />
          </mxGeometry>
        </mxCell>
        <mxCell id="8pl1B0JXZX6rLwuSRWSA-142" value="" style="shape=flexArrow;endArrow=classic;html=1;rounded=0;fillColor=#99CCFF;strokeColor=#99CCFF;" edge="1" parent="1">
          <mxGeometry width="50" height="50" relative="1" as="geometry">
            <mxPoint x="674" y="900" as="sourcePoint" />
            <mxPoint x="673.7200000000003" y="989" as="targetPoint" />
          </mxGeometry>
        </mxCell>
        <mxCell id="8pl1B0JXZX6rLwuSRWSA-143" value="" style="shape=flexArrow;endArrow=classic;html=1;rounded=0;fillColor=#99CCFF;strokeColor=#99CCFF;" edge="1" parent="1">
          <mxGeometry width="50" height="50" relative="1" as="geometry">
            <mxPoint x="494" y="900" as="sourcePoint" />
            <mxPoint x="493.72" y="989" as="targetPoint" />
          </mxGeometry>
        </mxCell>
        <mxCell id="8pl1B0JXZX6rLwuSRWSA-144" value="" style="shape=flexArrow;endArrow=classic;html=1;rounded=0;fillColor=#99CCFF;strokeColor=#99CCFF;" edge="1" parent="1">
          <mxGeometry width="50" height="50" relative="1" as="geometry">
            <mxPoint x="304" y="1090" as="sourcePoint" />
            <mxPoint x="394" y="1089.72" as="targetPoint" />
          </mxGeometry>
        </mxCell>
        <mxCell id="8pl1B0JXZX6rLwuSRWSA-145" value="" style="shape=flexArrow;endArrow=classic;html=1;rounded=0;fillColor=#99CCFF;strokeColor=#99CCFF;" edge="1" parent="1">
          <mxGeometry width="50" height="50" relative="1" as="geometry">
            <mxPoint x="864" y="1090" as="sourcePoint" />
            <mxPoint x="774" y="1089.72" as="targetPoint" />
          </mxGeometry>
        </mxCell>
        <mxCell id="8pl1B0JXZX6rLwuSRWSA-146" value="" style="shape=flexArrow;endArrow=classic;html=1;rounded=0;fillColor=#99CCFF;strokeColor=#99CCFF;" edge="1" parent="1">
          <mxGeometry width="50" height="50" relative="1" as="geometry">
            <mxPoint x="674" y="1280" as="sourcePoint" />
            <mxPoint x="673.7200000000003" y="1190" as="targetPoint" />
          </mxGeometry>
        </mxCell>
        <mxCell id="8pl1B0JXZX6rLwuSRWSA-147" value="" style="shape=flexArrow;endArrow=classic;html=1;rounded=0;fillColor=#99CCFF;strokeColor=#99CCFF;" edge="1" parent="1">
          <mxGeometry width="50" height="50" relative="1" as="geometry">
            <mxPoint x="494" y="1280" as="sourcePoint" />
            <mxPoint x="493.72" y="1189.44" as="targetPoint" />
          </mxGeometry>
        </mxCell>
        <mxCell id="8pl1B0JXZX6rLwuSRWSA-148" value="" style="shape=flexArrow;endArrow=classic;startArrow=classic;html=1;rounded=0;exitX=1;exitY=0.5;exitDx=0;exitDy=0;fillColor=#99CCFF;strokeColor=#99CCFF;" edge="1" parent="1" source="8pl1B0JXZX6rLwuSRWSA-126">
          <mxGeometry width="100" height="100" relative="1" as="geometry">
            <mxPoint x="544" y="1090" as="sourcePoint" />
            <mxPoint x="484" y="1090" as="targetPoint" />
          </mxGeometry>
        </mxCell>
        <mxCell id="8pl1B0JXZX6rLwuSRWSA-149" value="" style="shape=flexArrow;endArrow=classic;startArrow=classic;html=1;rounded=0;entryX=0;entryY=0.5;entryDx=0;entryDy=0;fillColor=#99CCFF;strokeColor=#99CCFF;" edge="1" parent="1">
          <mxGeometry width="100" height="100" relative="1" as="geometry">
            <mxPoint x="684" y="1090" as="sourcePoint" />
            <mxPoint x="754" y="1089.72" as="targetPoint" />
          </mxGeometry>
        </mxCell>
        <mxCell id="8pl1B0JXZX6rLwuSRWSA-150" value="" style="whiteSpace=wrap;html=1;aspect=fixed;fillColor=#7EA6E0;strokeColor=#7EA6E0;" vertex="1" parent="1">
          <mxGeometry x="484" y="1080" width="20" height="20" as="geometry" />
        </mxCell>
        <mxCell id="8pl1B0JXZX6rLwuSRWSA-151" value="" style="whiteSpace=wrap;html=1;aspect=fixed;fillColor=#7EA6E0;strokeColor=#7EA6E0;" vertex="1" parent="1">
          <mxGeometry x="664" y="1080" width="20" height="20" as="geometry" />
        </mxCell>
        <mxCell id="8pl1B0JXZX6rLwuSRWSA-152" value="" style="shape=flexArrow;endArrow=classic;startArrow=classic;html=1;rounded=0;entryX=0;entryY=0.5;entryDx=0;entryDy=0;fillColor=#99CCFF;strokeColor=#99CCFF;" edge="1" parent="1">
          <mxGeometry width="100" height="100" relative="1" as="geometry">
            <mxPoint x="594" y="1090" as="sourcePoint" />
            <mxPoint x="664" y="1089.72" as="targetPoint" />
          </mxGeometry>
        </mxCell>
        <mxCell id="8pl1B0JXZX6rLwuSRWSA-153" value="" style="shape=flexArrow;endArrow=classic;startArrow=classic;html=1;rounded=0;entryX=0;entryY=0.5;entryDx=0;entryDy=0;fillColor=#99CCFF;strokeColor=#99CCFF;" edge="1" parent="1">
          <mxGeometry width="100" height="100" relative="1" as="geometry">
            <mxPoint x="504" y="1090" as="sourcePoint" />
            <mxPoint x="574" y="1089.72" as="targetPoint" />
          </mxGeometry>
        </mxCell>
        <mxCell id="8pl1B0JXZX6rLwuSRWSA-154" value="" style="shape=flexArrow;endArrow=classic;startArrow=classic;html=1;rounded=0;entryX=0.5;entryY=0;entryDx=0;entryDy=0;fillColor=#99CCFF;strokeColor=#99CCFF;" edge="1" parent="1" target="8pl1B0JXZX6rLwuSRWSA-150">
          <mxGeometry width="100" height="100" relative="1" as="geometry">
            <mxPoint x="494" y="1009.72" as="sourcePoint" />
            <mxPoint x="564" y="1009.44" as="targetPoint" />
          </mxGeometry>
        </mxCell>
        <mxCell id="8pl1B0JXZX6rLwuSRWSA-155" value="" style="shape=flexArrow;endArrow=classic;startArrow=classic;html=1;rounded=0;entryX=0.5;entryY=0;entryDx=0;entryDy=0;fillColor=#99CCFF;strokeColor=#99CCFF;" edge="1" parent="1">
          <mxGeometry width="100" height="100" relative="1" as="geometry">
            <mxPoint x="493.72" y="1099.72" as="sourcePoint" />
            <mxPoint x="493.72" y="1170" as="targetPoint" />
          </mxGeometry>
        </mxCell>
        <mxCell id="8pl1B0JXZX6rLwuSRWSA-156" value="" style="shape=flexArrow;endArrow=classic;startArrow=classic;html=1;rounded=0;entryX=0.5;entryY=0;entryDx=0;entryDy=0;fillColor=#99CCFF;strokeColor=#99CCFF;" edge="1" parent="1">
          <mxGeometry width="100" height="100" relative="1" as="geometry">
            <mxPoint x="673.7200000000003" y="1009.72" as="sourcePoint" />
            <mxPoint x="673.7200000000003" y="1080" as="targetPoint" />
          </mxGeometry>
        </mxCell>
        <mxCell id="8pl1B0JXZX6rLwuSRWSA-157" value="" style="shape=flexArrow;endArrow=classic;startArrow=classic;html=1;rounded=0;entryX=0.5;entryY=0;entryDx=0;entryDy=0;fillColor=#99CCFF;strokeColor=#99CCFF;" edge="1" parent="1">
          <mxGeometry width="100" height="100" relative="1" as="geometry">
            <mxPoint x="673.7200000000003" y="1099.72" as="sourcePoint" />
            <mxPoint x="673.7200000000003" y="1170" as="targetPoint" />
          </mxGeometry>
        </mxCell>
        <mxCell id="8pl1B0JXZX6rLwuSRWSA-158" value="" style="shape=flexArrow;endArrow=classic;startArrow=classic;html=1;rounded=0;fillColor=#99CCFF;strokeColor=#99CCFF;startWidth=5.760836566031371;startSize=1.170909090909091;endWidth=5.760836566031371;endSize=0.9651948051948052;width=4.103896103896104;entryX=0.5;entryY=0;entryDx=0;entryDy=0;exitX=0.5;exitY=1.025;exitDx=0;exitDy=0;exitPerimeter=0;" edge="1" parent="1" source="8pl1B0JXZX6rLwuSRWSA-125" target="8pl1B0JXZX6rLwuSRWSA-111">
          <mxGeometry width="100" height="100" relative="1" as="geometry">
            <mxPoint x="594" y="1110" as="sourcePoint" />
            <mxPoint x="584" y="1120" as="targetPoint" />
          </mxGeometry>
        </mxCell>
        <mxCell id="8pl1B0JXZX6rLwuSRWSA-159" value="" style="shape=flexArrow;endArrow=classic;startArrow=classic;html=1;rounded=0;fillColor=#99CCFF;strokeColor=#99CCFF;startWidth=5.760836566031371;startSize=1.170909090909091;endWidth=5.760836566031371;endSize=0.9651948051948052;width=4.103896103896104;entryX=0.5;entryY=0;entryDx=0;entryDy=0;exitX=0.5;exitY=1.025;exitDx=0;exitDy=0;exitPerimeter=0;" edge="1" parent="1">
          <mxGeometry width="100" height="100" relative="1" as="geometry">
            <mxPoint x="583.79" y="1061" as="sourcePoint" />
            <mxPoint x="583.79" y="1080" as="targetPoint" />
          </mxGeometry>
        </mxCell>
        <mxCell id="8pl1B0JXZX6rLwuSRWSA-160" value="" style="shape=flexArrow;endArrow=classic;startArrow=classic;html=1;rounded=0;fillColor=#99CCFF;strokeColor=#99CCFF;startWidth=5.760836566031371;startSize=1.170909090909091;endWidth=5.760836566031371;endSize=0.9651948051948052;width=4.103896103896104;entryX=0.5;entryY=0;entryDx=0;entryDy=0;exitX=0.5;exitY=1.025;exitDx=0;exitDy=0;exitPerimeter=0;" edge="1" parent="1">
          <mxGeometry width="100" height="100" relative="1" as="geometry">
            <mxPoint x="763.79" y="1100" as="sourcePoint" />
            <mxPoint x="763.79" y="1119" as="targetPoint" />
          </mxGeometry>
        </mxCell>
        <mxCell id="8pl1B0JXZX6rLwuSRWSA-161" value="" style="shape=flexArrow;endArrow=classic;startArrow=classic;html=1;rounded=0;fillColor=#99CCFF;strokeColor=#99CCFF;startWidth=5.760836566031371;startSize=1.170909090909091;endWidth=5.760836566031371;endSize=0.9651948051948052;width=4.103896103896104;entryX=0.5;entryY=0;entryDx=0;entryDy=0;exitX=0.5;exitY=1.025;exitDx=0;exitDy=0;exitPerimeter=0;" edge="1" parent="1">
          <mxGeometry width="100" height="100" relative="1" as="geometry">
            <mxPoint x="763.79" y="1061" as="sourcePoint" />
            <mxPoint x="763.79" y="1080" as="targetPoint" />
          </mxGeometry>
        </mxCell>
        <mxCell id="8pl1B0JXZX6rLwuSRWSA-162" value="" style="shape=flexArrow;endArrow=classic;startArrow=classic;html=1;rounded=0;fillColor=#99CCFF;strokeColor=#99CCFF;startWidth=5.760836566031371;startSize=1.170909090909091;endWidth=5.760836566031371;endSize=0.9651948051948052;width=4.103896103896104;entryX=0.5;entryY=0;entryDx=0;entryDy=0;exitX=0.5;exitY=1.025;exitDx=0;exitDy=0;exitPerimeter=0;" edge="1" parent="1" target="8pl1B0JXZX6rLwuSRWSA-126">
          <mxGeometry width="100" height="100" relative="1" as="geometry">
            <mxPoint x="403.9200000000001" y="1060" as="sourcePoint" />
            <mxPoint x="403.9200000000001" y="1079" as="targetPoint" />
          </mxGeometry>
        </mxCell>
        <mxCell id="8pl1B0JXZX6rLwuSRWSA-163" value="" style="shape=flexArrow;endArrow=classic;startArrow=classic;html=1;rounded=0;fillColor=#99CCFF;strokeColor=#99CCFF;startWidth=5.760836566031371;startSize=1.170909090909091;endWidth=5.760836566031371;endSize=0.9651948051948052;width=4.103896103896104;entryX=0.5;entryY=0;entryDx=0;entryDy=0;exitX=0.5;exitY=1.025;exitDx=0;exitDy=0;exitPerimeter=0;" edge="1" parent="1">
          <mxGeometry width="100" height="100" relative="1" as="geometry">
            <mxPoint x="403.78" y="1100" as="sourcePoint" />
            <mxPoint x="403.78" y="1119" as="targetPoint" />
          </mxGeometry>
        </mxCell>
        <mxCell id="8pl1B0JXZX6rLwuSRWSA-164" value="" style="shape=flexArrow;endArrow=classic;startArrow=classic;html=1;rounded=0;fillColor=#99CCFF;strokeColor=#99CCFF;startWidth=5.760836566031371;startSize=1.170909090909091;endWidth=5.760836566031371;endSize=0.9651948051948052;width=4.103896103896104;exitX=0;exitY=0.5;exitDx=0;exitDy=0;" edge="1" parent="1" source="8pl1B0JXZX6rLwuSRWSA-70">
          <mxGeometry width="100" height="100" relative="1" as="geometry">
            <mxPoint x="504" y="980" as="sourcePoint" />
            <mxPoint x="504" y="1000" as="targetPoint" />
          </mxGeometry>
        </mxCell>
        <mxCell id="8pl1B0JXZX6rLwuSRWSA-165" value="" style="shape=flexArrow;endArrow=classic;startArrow=classic;html=1;rounded=0;fillColor=#99CCFF;strokeColor=#99CCFF;startWidth=5.760836566031371;startSize=1.170909090909091;endWidth=5.760836566031371;endSize=0.9651948051948052;width=4.103896103896104;exitX=0;exitY=0.5;exitDx=0;exitDy=0;" edge="1" parent="1">
          <mxGeometry width="100" height="100" relative="1" as="geometry">
            <mxPoint x="484" y="999.94" as="sourcePoint" />
            <mxPoint x="464" y="999.94" as="targetPoint" />
          </mxGeometry>
        </mxCell>
        <mxCell id="8pl1B0JXZX6rLwuSRWSA-166" value="" style="shape=flexArrow;endArrow=classic;startArrow=classic;html=1;rounded=0;fillColor=#99CCFF;strokeColor=#99CCFF;startWidth=5.760836566031371;startSize=1.170909090909091;endWidth=5.760836566031371;endSize=0.9651948051948052;width=4.103896103896104;exitX=0;exitY=0.5;exitDx=0;exitDy=0;" edge="1" parent="1">
          <mxGeometry width="100" height="100" relative="1" as="geometry">
            <mxPoint x="664" y="999.8700000000001" as="sourcePoint" />
            <mxPoint x="644" y="999.8700000000001" as="targetPoint" />
          </mxGeometry>
        </mxCell>
        <mxCell id="8pl1B0JXZX6rLwuSRWSA-167" value="" style="shape=flexArrow;endArrow=classic;startArrow=classic;html=1;rounded=0;fillColor=#99CCFF;strokeColor=#99CCFF;startWidth=5.760836566031371;startSize=1.170909090909091;endWidth=5.760836566031371;endSize=0.9651948051948052;width=4.103896103896104;exitX=0;exitY=0.5;exitDx=0;exitDy=0;" edge="1" parent="1">
          <mxGeometry width="100" height="100" relative="1" as="geometry">
            <mxPoint x="704" y="999.8700000000001" as="sourcePoint" />
            <mxPoint x="684" y="999.8700000000001" as="targetPoint" />
          </mxGeometry>
        </mxCell>
        <mxCell id="8pl1B0JXZX6rLwuSRWSA-168" value="" style="shape=flexArrow;endArrow=classic;startArrow=classic;html=1;rounded=0;fillColor=#99CCFF;strokeColor=#99CCFF;startWidth=5.760836566031371;startSize=1.170909090909091;endWidth=5.760836566031371;endSize=0.9651948051948052;width=4.103896103896104;exitX=0;exitY=0.5;exitDx=0;exitDy=0;" edge="1" parent="1">
          <mxGeometry width="100" height="100" relative="1" as="geometry">
            <mxPoint x="524" y="1179.87" as="sourcePoint" />
            <mxPoint x="504" y="1179.87" as="targetPoint" />
          </mxGeometry>
        </mxCell>
        <mxCell id="8pl1B0JXZX6rLwuSRWSA-169" value="" style="shape=flexArrow;endArrow=classic;startArrow=classic;html=1;rounded=0;fillColor=#99CCFF;strokeColor=#99CCFF;startWidth=5.760836566031371;startSize=1.170909090909091;endWidth=5.760836566031371;endSize=0.9651948051948052;width=4.103896103896104;exitX=0;exitY=0.5;exitDx=0;exitDy=0;" edge="1" parent="1">
          <mxGeometry width="100" height="100" relative="1" as="geometry">
            <mxPoint x="484" y="1179.87" as="sourcePoint" />
            <mxPoint x="464" y="1179.87" as="targetPoint" />
          </mxGeometry>
        </mxCell>
        <mxCell id="8pl1B0JXZX6rLwuSRWSA-170" value="" style="shape=flexArrow;endArrow=classic;startArrow=classic;html=1;rounded=0;fillColor=#99CCFF;strokeColor=#99CCFF;startWidth=5.760836566031371;startSize=1.170909090909091;endWidth=5.760836566031371;endSize=0.9651948051948052;width=4.103896103896104;exitX=0;exitY=0.5;exitDx=0;exitDy=0;" edge="1" parent="1">
          <mxGeometry width="100" height="100" relative="1" as="geometry">
            <mxPoint x="664" y="1179.87" as="sourcePoint" />
            <mxPoint x="644" y="1179.87" as="targetPoint" />
          </mxGeometry>
        </mxCell>
        <mxCell id="8pl1B0JXZX6rLwuSRWSA-171" value="" style="shape=flexArrow;endArrow=classic;startArrow=classic;html=1;rounded=0;fillColor=#99CCFF;strokeColor=#99CCFF;startWidth=5.760836566031371;startSize=1.170909090909091;endWidth=5.760836566031371;endSize=0.9651948051948052;width=4.103896103896104;exitX=0;exitY=0.5;exitDx=0;exitDy=0;" edge="1" parent="1">
          <mxGeometry width="100" height="100" relative="1" as="geometry">
            <mxPoint x="704" y="1179.87" as="sourcePoint" />
            <mxPoint x="684" y="1179.87" as="targetPoint" />
          </mxGeometry>
        </mxCell>
        <mxCell id="8pl1B0JXZX6rLwuSRWSA-180" value="" style="rounded=0;whiteSpace=wrap;html=1;strokeColor=#004C99;fillColor=#004C99;" vertex="1" parent="1">
          <mxGeometry x="729" y="1180" width="70" height="10" as="geometry" />
        </mxCell>
        <mxCell id="8pl1B0JXZX6rLwuSRWSA-181" value="" style="endArrow=none;html=1;rounded=0;strokeColor=#004C99;" edge="1" parent="1" target="8pl1B0JXZX6rLwuSRWSA-182">
          <mxGeometry width="50" height="50" relative="1" as="geometry">
            <mxPoint x="729" y="1210" as="sourcePoint" />
            <mxPoint x="799" y="1210" as="targetPoint" />
          </mxGeometry>
        </mxCell>
        <mxCell id="8pl1B0JXZX6rLwuSRWSA-182" value="" style="rounded=0;whiteSpace=wrap;html=1;strokeColor=#004C99;fillColor=#004C99;" vertex="1" parent="1">
          <mxGeometry x="729" y="1210" width="70" height="10" as="geometry" />
        </mxCell>
        <mxCell id="8pl1B0JXZX6rLwuSRWSA-184" value="&lt;font style=&quot;font-size: 24px;&quot;&gt;$$\text{FPGA}$$&lt;/font&gt;" style="text;html=1;align=center;verticalAlign=middle;whiteSpace=wrap;rounded=0;" vertex="1" parent="1">
          <mxGeometry x="554" y="1327.0900000000001" width="60" height="30" as="geometry" />
        </mxCell>
      </root>
    </mxGraphModel>
  </diagram>
</mxfile>
